<?xml version="1.0" standalone="no"?>
<!DOCTYPE svg PUBLIC "-//W3C//DTD SVG 20010904//EN"
 "http://www.w3.org/TR/2001/REC-SVG-20010904/DTD/svg10.dtd">
<svg version="1.0" xmlns="http://www.w3.org/2000/svg"
 width="260.000000pt" height="260.000000pt" viewBox="0 0 260.000000 260.000000"
 preserveAspectRatio="xMidYMid meet">
<metadata>
Created by potrace 1.11, written by Peter Selinger 2001-2013
</metadata>
<g transform="translate(0.000000,260.000000) scale(0.100000,-0.100000)"
fill="#000000" stroke="none">
<path d="M0 1290 l0 -1000 420 0 420 0 0 1000 0 1000 -420 0 -420 0 0 -1000z
m514 -174 c98 -30 148 -94 149 -195 0 -80 -17 -124 -69 -170 -24 -21 -44 -41
-44 -45 0 -4 31 -62 70 -130 39 -68 70 -127 70 -130 0 -4 -39 -5 -87 -4 l-87
3 -57 108 c-73 137 -74 139 -118 135 l-36 -3 -3 -122 -3 -123 -74 0 -75 0 0
345 0 345 158 0 c108 0 174 -5 206 -14z"/>
<path d="M302 909 l3 -94 74 1 c71 0 75 2 104 34 25 28 28 39 24 73 -8 61 -25
71 -123 76 l-85 3 3 -93z"/>
<path d="M880 1290 l0 -1000 420 0 420 0 0 1000 0 1000 -420 0 -420 0 0 -1000z
m552 -167 c46 -17 108 -59 108 -72 0 -5 -16 -29 -35 -54 l-35 -46 -42 24 c-60
33 -107 40 -151 21 -31 -12 -37 -20 -37 -45 0 -39 27 -59 136 -101 176 -68
232 -176 163 -313 -66 -129 -311 -152 -455 -42 l-34 26 20 27 c61 82 68 87 87
70 76 -69 220 -76 244 -12 15 41 -11 65 -125 116 -158 69 -196 111 -196 215 0
86 54 158 142 190 49 17 161 16 210 -4z"/>
<path d="M1760 1290 l0 -1000 420 0 420 0 0 1000 0 1000 -420 0 -420 0 0
-1000z m690 -225 l0 -65 -95 0 -95 0 0 -280 0 -280 -80 0 -80 0 0 280 0 280
-95 0 -95 0 0 65 0 65 270 0 270 0 0 -65z"/>
</g>
</svg>
