<?xml version="1.0" encoding="UTF-8" standalone="no"?>
<!-- Generator: Adobe Illustrator 22.0.1, SVG Export Plug-In . SVG Version: 6.00 Build 0)  -->

<svg
   xmlns:dc="http://purl.org/dc/elements/1.1/"
   xmlns:cc="http://creativecommons.org/ns#"
   xmlns:rdf="http://www.w3.org/1999/02/22-rdf-syntax-ns#"
   xmlns:svg="http://www.w3.org/2000/svg"
   xmlns="http://www.w3.org/2000/svg"
   xmlns:sodipodi="http://sodipodi.sourceforge.net/DTD/sodipodi-0.dtd"
   xmlns:inkscape="http://www.inkscape.org/namespaces/inkscape"
   version="1.1"
   id="Warstwa_1"
   x="0px"
   y="0px"
   viewBox="0 0 53.999999 54.000001"
   xml:space="preserve"
   sodipodi:docname="rst-logo.svg"
   width="54"
   height="54"
   inkscape:version="0.92.2 5c3e80d, 2017-08-06"><metadata
     id="metadata57"><rdf:RDF><cc:Work
         rdf:about=""><dc:format>image/svg+xml</dc:format><dc:type
           rdf:resource="http://purl.org/dc/dcmitype/StillImage" /><dc:title></dc:title></cc:Work></rdf:RDF></metadata><defs
     id="defs55"><clipPath
       id="clipPath931"
       clipPathUnits="userSpaceOnUse"><path
         inkscape:connector-curvature="0"
         id="path929"
         d="M 0,107.72 H 141.73 V 0 H 0 Z" /></clipPath><clipPath
       id="clipPath931-3"
       clipPathUnits="userSpaceOnUse"><path
         inkscape:connector-curvature="0"
         id="path929-8"
         d="M 0,107.72 H 141.73 V 0 H 0 Z" /></clipPath></defs><sodipodi:namedview
     pagecolor="#ffffff"
     bordercolor="#666666"
     borderopacity="1"
     objecttolerance="10"
     gridtolerance="10"
     guidetolerance="10"
     inkscape:pageopacity="0"
     inkscape:pageshadow="2"
     inkscape:window-width="1036"
     inkscape:window-height="557"
     id="namedview53"
     showgrid="false"
     inkscape:zoom="3.4807126"
     inkscape:cx="40.582115"
     inkscape:cy="41.222168"
     inkscape:window-x="349"
     inkscape:window-y="216"
     inkscape:window-maximized="0"
     inkscape:current-layer="Warstwa_1" /><style
     type="text/css"
     id="style2">
	.st0{fill:#F39200;}
	.st1{fill:#EC671A;}
	.st2{fill:#E30613;}
	.st3{fill:#FFFFFF;}
	.st4{fill:#3C3C3B;}
</style><g
     transform="matrix(0.70292023,0,0,-0.70292023,-23.081274,61.683019)"
     inkscape:label="rst_logo_square_blue"
     id="g917"><path
       inkscape:connector-curvature="0"
       id="path919"
       style="fill:#15579e;fill-opacity:1;fill-rule:nonzero;stroke:none"
       d="M 58.299,29.615 H 34.585 v 56.718 h 23.714 z" /><path
       inkscape:connector-curvature="0"
       id="path921"
       style="fill:#15579e;fill-opacity:1;fill-rule:nonzero;stroke:none"
       d="M 83.271,29.615 H 59.557 v 56.718 h 23.714 z" /><path
       inkscape:connector-curvature="0"
       id="path923"
       style="fill:#15579e;fill-opacity:1;fill-rule:nonzero;stroke:none"
       d="M 108.236,29.615 H 84.522 v 56.718 h 23.714 z" /><g
       id="g925"><g
         clip-path="url(#clipPath931-3)"
         id="g927"><g
           transform="translate(43.1904,44.3946)"
           id="g933"><path
             inkscape:connector-curvature="0"
             id="path935"
             style="fill:#ffffff;fill-opacity:1;fill-rule:nonzero;stroke:none"
             d="M 0,0 H 2.262 C 4.583,0 5.85,0.995 5.85,2.925 5.85,4.855 4.583,5.518 2.262,5.518 H 0 Z M 6.181,-10.614 2.412,-3.528 H 0 v -7.086 h -4.462 v 19.66 h 7.085 c 4.162,0 7.599,-1.448 7.599,-6.121 0,-2.895 -1.418,-4.734 -3.498,-5.669 l 4.433,-7.87 z" /></g><g
           transform="translate(66.8516,39.2987)"
           id="g937"><path
             inkscape:connector-curvature="0"
             id="path939"
             style="fill:#ffffff;fill-opacity:1;fill-rule:nonzero;stroke:none"
             d="m 0,0 c 1.387,-1.206 3.196,-2.05 4.825,-2.05 1.839,0 2.744,0.724 2.744,1.899 0,1.237 -1.116,1.629 -2.835,2.352 L 2.201,3.287 c -2.05,0.814 -3.98,2.502 -3.98,5.367 0,3.257 2.925,5.85 6.995,5.85 2.262,0 4.644,-0.905 6.333,-2.593 L 9.318,9.106 c -1.297,0.995 -2.533,1.568 -4.102,1.568 -1.507,0 -2.502,-0.663 -2.502,-1.779 0,-1.206 1.297,-1.628 3.015,-2.322 L 8.232,5.548 c 2.382,-0.965 3.89,-2.563 3.89,-5.337 0,-3.256 -2.714,-6.09 -7.388,-6.09 -2.563,0 -5.277,0.964 -7.297,2.834 z" /></g><g
           transform="translate(94.1618,49.7016)"
           id="g941"><path
             inkscape:connector-curvature="0"
             id="path943"
             style="fill:#ffffff;fill-opacity:1;fill-rule:nonzero;stroke:none"
             d="M 0,0 H -5.428 V 3.739 H 9.83 V 0 H 4.432 V -15.921 H 0 Z" /></g><g
           transform="translate(37.6269,22.3896)"
           id="g945"><path
             inkscape:connector-curvature="0"
             id="path947"
             style="fill:#393536;fill-opacity:1;fill-rule:nonzero;stroke:none"
             d="m 0,0 c 0,-0.468 -0.169,-0.835 -0.507,-1.101 -0.339,-0.267 -0.805,-0.4 -1.4,-0.4 -0.595,0 -1.082,0.093 -1.461,0.278 v 0.813 c 0.24,-0.113 0.494,-0.201 0.764,-0.266 0.27,-0.065 0.521,-0.097 0.754,-0.097 0.341,0 0.592,0.064 0.754,0.194 0.162,0.129 0.243,0.303 0.243,0.521 0,0.197 -0.074,0.364 -0.223,0.501 -0.149,0.137 -0.456,0.299 -0.921,0.485 -0.48,0.195 -0.818,0.417 -1.015,0.667 -0.197,0.249 -0.295,0.549 -0.295,0.899 0,0.439 0.155,0.785 0.468,1.037 0.311,0.251 0.73,0.378 1.256,0.378 0.503,0 1.005,-0.11 1.504,-0.332 L -0.353,2.876 c -0.468,0.197 -0.885,0.295 -1.252,0.295 -0.278,0 -0.489,-0.061 -0.634,-0.182 -0.143,-0.121 -0.215,-0.281 -0.215,-0.48 0,-0.137 0.029,-0.254 0.086,-0.351 C -2.31,2.06 -2.215,1.969 -2.084,1.883 -1.952,1.796 -1.714,1.682 -1.371,1.54 -0.985,1.38 -0.702,1.23 -0.522,1.091 -0.342,0.952 -0.21,0.795 -0.126,0.619 -0.042,0.444 0,0.238 0,0" /></g><g
           transform="translate(39.3741,23.5993)"
           id="g949"><path
             inkscape:connector-curvature="0"
             id="path951"
             style="fill:#393536;fill-opacity:1;fill-rule:nonzero;stroke:none"
             d="m 0,0 c 0,-0.648 0.131,-1.139 0.392,-1.474 0.262,-0.335 0.649,-0.502 1.163,-0.502 0.511,0 0.896,0.165 1.157,0.496 0.26,0.332 0.39,0.825 0.39,1.48 0,0.645 -0.128,1.134 -0.387,1.468 C 2.457,1.802 2.073,1.969 1.562,1.969 1.046,1.969 0.657,1.802 0.394,1.468 0.131,1.134 0,0.645 0,0 M 4.017,0 C 4.017,-0.857 3.803,-1.523 3.374,-1.998 2.946,-2.473 2.34,-2.71 1.555,-2.71 c -0.794,0 -1.405,0.235 -1.83,0.707 -0.426,0.471 -0.639,1.141 -0.639,2.01 0,0.869 0.214,1.535 0.642,2.001 0.429,0.466 1.04,0.698 1.834,0.698 0.782,0 1.387,-0.236 1.814,-0.709 C 3.803,1.524 4.017,0.859 4.017,0" /></g><g
           transform="translate(45.4473,20.961)"
           id="g953"><path
             inkscape:connector-curvature="0"
             id="path955"
             style="fill:#393536;fill-opacity:1;fill-rule:nonzero;stroke:none"
             d="m 0,0 h -0.853 v 5.262 h 2.97 V 4.535 H 0 V 2.89 H 1.983 V 2.159 H 0 Z" /></g><g
           transform="translate(50.4085,20.961)"
           id="g957"><path
             inkscape:connector-curvature="0"
             id="path959"
             style="fill:#393536;fill-opacity:1;fill-rule:nonzero;stroke:none"
             d="M 0,0 H -0.86 V 4.524 H -2.408 V 5.262 H 1.547 V 4.524 H 0 Z" /></g><g
           transform="translate(57.6914,20.961)"
           id="g961"><path
             inkscape:connector-curvature="0"
             id="path963"
             style="fill:#393536;fill-opacity:1;fill-rule:nonzero;stroke:none"
             d="M 0,0 H -0.936 L -1.828,3.139 C -1.867,3.275 -1.915,3.473 -1.973,3.73 -2.03,3.988 -2.065,4.167 -2.077,4.269 -2.101,4.115 -2.14,3.916 -2.194,3.671 -2.248,3.426 -2.293,3.244 -2.329,3.124 L -3.2,0 h -0.935 l -0.681,2.634 -0.69,2.628 h 0.878 l 0.752,-3.066 c 0.117,-0.493 0.201,-0.927 0.252,-1.303 0.026,0.203 0.065,0.432 0.119,0.683 0.052,0.252 0.1,0.456 0.143,0.612 l 0.857,3.074 h 0.853 l 0.878,-3.088 c 0.084,-0.286 0.173,-0.713 0.266,-1.281 0.037,0.343 0.123,0.78 0.259,1.31 L 0.5,5.262 h 0.871 z" /></g><g
           transform="translate(62.3931,23.1639)"
           id="g965"><path
             inkscape:connector-curvature="0"
             id="path967"
             style="fill:#393536;fill-opacity:1;fill-rule:nonzero;stroke:none"
             d="M 0,0 -0.493,1.432 C -0.529,1.528 -0.579,1.679 -0.643,1.886 -0.706,2.092 -0.75,2.243 -0.774,2.339 -0.838,2.044 -0.933,1.721 -1.058,1.371 L -1.533,0 Z M 0.752,-2.203 0.227,-0.742 H -1.785 L -2.3,-2.203 h -0.907 l 1.969,5.283 h 0.936 l 1.968,-5.283 z" /></g><g
           transform="translate(65.6878,23.7753)"
           id="g969"><path
             inkscape:connector-curvature="0"
             id="path971"
             style="fill:#393536;fill-opacity:1;fill-rule:nonzero;stroke:none"
             d="m 0,0 h 0.598 c 0.4,0 0.69,0.075 0.87,0.223 0.18,0.149 0.27,0.37 0.27,0.662 0,0.298 -0.097,0.511 -0.291,0.641 C 1.253,1.656 0.96,1.72 0.569,1.72 H 0 Z m 0,-0.713 v -2.101 h -0.86 v 5.262 h 1.486 c 0.679,0 1.182,-0.128 1.508,-0.382 0.327,-0.255 0.49,-0.638 0.49,-1.151 0,-0.656 -0.341,-1.123 -1.022,-1.401 L 3.088,-2.814 H 2.109 l -1.26,2.101 z" /></g><g
           transform="translate(72.5888,20.961)"
           id="g973"><path
             inkscape:connector-curvature="0"
             id="path975"
             style="fill:#393536;fill-opacity:1;fill-rule:nonzero;stroke:none"
             d="M 0,0 H -2.976 V 5.262 H 0 V 4.535 H -2.116 V 3.102 h 1.983 V 2.383 H -2.116 V 0.731 H 0 Z" /></g><g
           transform="translate(78.0628,20.961)"
           id="g977"><path
             inkscape:connector-curvature="0"
             id="path979"
             style="fill:#393536;fill-opacity:1;fill-rule:nonzero;stroke:none"
             d="M 0,0 -1.526,4.394 H -1.555 C -1.514,3.742 -1.493,3.13 -1.493,2.559 V 0 h -0.782 v 5.262 h 1.213 L 0.4,1.076 H 0.421 L 1.926,5.262 H 3.142 V 0 H 2.314 v 2.602 c 0,0.262 0.007,0.602 0.02,1.022 0.013,0.42 0.025,0.674 0.034,0.763 H 2.34 L 0.759,0 Z" /></g><g
           transform="translate(85.1758,23.1639)"
           id="g981"><path
             inkscape:connector-curvature="0"
             id="path983"
             style="fill:#393536;fill-opacity:1;fill-rule:nonzero;stroke:none"
             d="M 0,0 -0.493,1.432 C -0.529,1.528 -0.579,1.679 -0.643,1.886 -0.706,2.092 -0.75,2.243 -0.774,2.339 -0.838,2.044 -0.933,1.721 -1.058,1.371 L -1.533,0 Z M 0.752,-2.203 0.227,-0.742 H -1.785 L -2.3,-2.203 h -0.907 l 1.969,5.283 h 0.936 l 1.968,-5.283 z" /></g><g
           transform="translate(90.6445,22.3896)"
           id="g985"><path
             inkscape:connector-curvature="0"
             id="path987"
             style="fill:#393536;fill-opacity:1;fill-rule:nonzero;stroke:none"
             d="m 0,0 c 0,-0.468 -0.169,-0.835 -0.507,-1.101 -0.339,-0.267 -0.805,-0.4 -1.4,-0.4 -0.595,0 -1.082,0.093 -1.461,0.278 v 0.813 c 0.24,-0.113 0.494,-0.201 0.764,-0.266 0.27,-0.065 0.522,-0.097 0.754,-0.097 0.341,0 0.592,0.064 0.754,0.194 0.162,0.129 0.243,0.303 0.243,0.521 0,0.197 -0.074,0.364 -0.223,0.501 -0.149,0.137 -0.456,0.299 -0.921,0.485 -0.48,0.195 -0.818,0.417 -1.015,0.667 -0.197,0.249 -0.295,0.549 -0.295,0.899 0,0.439 0.155,0.785 0.468,1.037 0.311,0.251 0.73,0.378 1.256,0.378 0.503,0 1.005,-0.11 1.504,-0.332 L -0.353,2.876 c -0.468,0.197 -0.885,0.295 -1.252,0.295 -0.278,0 -0.489,-0.061 -0.634,-0.182 -0.143,-0.121 -0.215,-0.281 -0.215,-0.48 0,-0.137 0.029,-0.254 0.086,-0.351 C -2.31,2.06 -2.215,1.969 -2.084,1.883 -1.952,1.796 -1.714,1.682 -1.371,1.54 -0.985,1.38 -0.702,1.23 -0.522,1.091 -0.342,0.952 -0.21,0.795 -0.126,0.619 -0.042,0.444 0,0.238 0,0" /></g><g
           transform="translate(93.5545,20.961)"
           id="g989"><path
             inkscape:connector-curvature="0"
             id="path991"
             style="fill:#393536;fill-opacity:1;fill-rule:nonzero;stroke:none"
             d="M 0,0 H -0.86 V 4.524 H -2.408 V 5.262 H 1.547 V 4.524 H 0 Z" /></g><g
           transform="translate(98.9579,20.961)"
           id="g993"><path
             inkscape:connector-curvature="0"
             id="path995"
             style="fill:#393536;fill-opacity:1;fill-rule:nonzero;stroke:none"
             d="M 0,0 H -2.976 V 5.262 H 0 V 4.535 H -2.116 V 3.102 h 1.983 V 2.383 H -2.116 V 0.731 H 0 Z" /></g><g
           transform="translate(101.0291,23.7753)"
           id="g997"><path
             inkscape:connector-curvature="0"
             id="path999"
             style="fill:#393536;fill-opacity:1;fill-rule:nonzero;stroke:none"
             d="m 0,0 h 0.598 c 0.4,0 0.69,0.075 0.87,0.223 0.18,0.149 0.27,0.37 0.27,0.662 0,0.298 -0.097,0.511 -0.291,0.641 C 1.253,1.656 0.96,1.72 0.569,1.72 H 0 Z m 0,-0.713 v -2.101 h -0.86 v 5.262 h 1.486 c 0.679,0 1.182,-0.128 1.508,-0.382 0.327,-0.255 0.49,-0.638 0.49,-1.151 0,-0.656 -0.341,-1.123 -1.022,-1.401 L 3.088,-2.814 H 2.109 l -1.26,2.101 z" /></g><g
           transform="translate(107.9877,22.3896)"
           id="g1001"><path
             inkscape:connector-curvature="0"
             id="path1003"
             style="fill:#393536;fill-opacity:1;fill-rule:nonzero;stroke:none"
             d="m 0,0 c 0,-0.468 -0.169,-0.835 -0.507,-1.101 -0.339,-0.267 -0.805,-0.4 -1.4,-0.4 -0.595,0 -1.082,0.093 -1.461,0.278 v 0.813 c 0.24,-0.113 0.494,-0.201 0.764,-0.266 0.27,-0.065 0.521,-0.097 0.754,-0.097 0.341,0 0.592,0.064 0.754,0.194 0.162,0.129 0.243,0.303 0.243,0.521 0,0.197 -0.074,0.364 -0.223,0.501 -0.149,0.137 -0.456,0.299 -0.921,0.485 -0.48,0.195 -0.818,0.417 -1.015,0.667 -0.197,0.249 -0.295,0.549 -0.295,0.899 0,0.439 0.155,0.785 0.468,1.037 0.311,0.251 0.73,0.378 1.256,0.378 0.503,0 1.005,-0.11 1.504,-0.332 L -0.353,2.876 c -0.468,0.197 -0.885,0.295 -1.252,0.295 -0.278,0 -0.489,-0.061 -0.634,-0.182 -0.143,-0.121 -0.215,-0.281 -0.215,-0.48 0,-0.137 0.029,-0.254 0.086,-0.351 C -2.31,2.06 -2.215,1.969 -2.084,1.883 -1.952,1.796 -1.714,1.682 -1.371,1.54 -0.985,1.38 -0.702,1.23 -0.522,1.091 -0.342,0.952 -0.21,0.795 -0.126,0.619 -0.042,0.444 0,0.238 0,0" /></g></g></g></g></svg>