<?xml version="1.0" encoding="UTF-8" standalone="no"?>
<!-- Generator: Adobe Illustrator 22.0.1, SVG Export Plug-In . SVG Version: 6.00 Build 0)  -->

<svg
   xmlns:dc="http://purl.org/dc/elements/1.1/"
   xmlns:cc="http://creativecommons.org/ns#"
   xmlns:rdf="http://www.w3.org/1999/02/22-rdf-syntax-ns#"
   xmlns:svg="http://www.w3.org/2000/svg"
   xmlns="http://www.w3.org/2000/svg"
   xmlns:sodipodi="http://sodipodi.sourceforge.net/DTD/sodipodi-0.dtd"
   xmlns:inkscape="http://www.inkscape.org/namespaces/inkscape"
   version="1.1"
   id="Warstwa_1"
   x="0px"
   y="0px"
   viewBox="0 0 53.999999 54.000001"
   xml:space="preserve"
   sodipodi:docname="rst-logo-it.svg"
   width="54"
   height="54"
   inkscape:version="0.92.2 5c3e80d, 2017-08-06"><metadata
     id="metadata57"><rdf:RDF><cc:Work
         rdf:about=""><dc:format>image/svg+xml</dc:format><dc:type
           rdf:resource="http://purl.org/dc/dcmitype/StillImage" /><dc:title></dc:title></cc:Work></rdf:RDF></metadata><defs
     id="defs55" /><sodipodi:namedview
     pagecolor="#ffffff"
     bordercolor="#666666"
     borderopacity="1"
     objecttolerance="10"
     gridtolerance="10"
     guidetolerance="10"
     inkscape:pageopacity="0"
     inkscape:pageshadow="2"
     inkscape:window-width="1036"
     inkscape:window-height="557"
     id="namedview53"
     showgrid="false"
     inkscape:zoom="3.4807126"
     inkscape:cx="40.582115"
     inkscape:cy="41.222168"
     inkscape:window-x="349"
     inkscape:window-y="216"
     inkscape:window-maximized="0"
     inkscape:current-layer="Warstwa_1" /><style
     type="text/css"
     id="style2">
	.st0{fill:#F39200;}
	.st1{fill:#EC671A;}
	.st2{fill:#E30613;}
	.st3{fill:#FFFFFF;}
	.st4{fill:#3C3C3B;}
</style><g
     id="g888"
     transform="matrix(0.98124054,0,0,0.98124054,0.51843188,0.11372636)"><g
       transform="matrix(0.1954782,0,0,0.1954782,-92.146343,-13.809899)"
       id="g22"><rect
         style="fill:#f39200"
         id="rect4"
         height="208.7"
         width="87.300003"
         class="st0"
         y="77.400002"
         x="473.89999" /><rect
         style="fill:#ec671a"
         id="rect6"
         height="208.7"
         width="87.300003"
         class="st1"
         y="77.400002"
         x="565.79999" /><rect
         style="fill:#e30613"
         id="rect8"
         height="208.7"
         width="87.300003"
         class="st2"
         y="77.400002"
         x="657.59998" /><g
         id="g12"><path
           style="fill:#ffffff"
           inkscape:connector-curvature="0"
           id="path10"
           d="m 528.3,270.8 -13.9,-26.1 h -8.9 v 26.1 h -16.4 v -72.3 h 26.1 c 15.3,0 28,5.3 28,22.5 0,10.7 -5.2,17.4 -12.9,20.9 l 16.3,29 h -18.3 z m -22.7,-39.1 h 8.3 c 8.5,0 13.2,-3.7 13.2,-10.8 0,-7.1 -4.7,-9.5 -13.2,-9.5 h -8.3 z"
           class="st3" /></g><g
         id="g16"><path
           style="fill:#ffffff"
           inkscape:connector-curvature="0"
           id="path14"
           d="m 592.6,250.5 c 5.1,4.4 11.8,7.5 17.8,7.5 6.8,0 10.1,-2.7 10.1,-7 0,-4.5 -4.1,-6 -10.4,-8.7 l -9.3,-4 c -7.5,-3 -14.6,-9.2 -14.6,-19.7 0,-12 10.8,-21.5 25.7,-21.5 8.3,0 17.1,3.3 23.3,9.5 l -8.2,10.3 c -4.8,-3.7 -9.3,-5.8 -15.1,-5.8 -5.5,0 -9.2,2.4 -9.2,6.5 0,4.4 4.8,6 11.1,8.5 l 9.2,3.8 c 8.8,3.6 14.3,9.4 14.3,19.6 0,12 -10,22.4 -27.2,22.4 -9.4,0 -19.4,-3.6 -26.8,-10.4 z"
           class="st3" /></g><g
         id="g20"><path
           style="fill:#ffffff"
           inkscape:connector-curvature="0"
           id="path18"
           d="m 693.1,212.2 h -20 v -13.8 h 56.1 v 13.8 h -19.9 v 58.6 H 693 v -58.6 z"
           class="st3" /></g></g><g
       transform="matrix(0.1954782,0,0,0.1954782,-92.146343,-13.809899)"
       id="g50"><path
         style="fill:#3c3c3b"
         inkscape:connector-curvature="0"
         id="path24"
         d="m 477.9,313.7 c 0.8,0.7 1.6,1.2 2.6,1.6 0.9,0.4 1.9,0.6 2.8,0.6 1,0 1.8,-0.2 2.3,-0.6 0.5,-0.4 0.7,-0.9 0.7,-1.5 0,-0.3 -0.1,-0.6 -0.2,-0.9 -0.1,-0.2 -0.4,-0.5 -0.6,-0.7 -0.3,-0.2 -0.6,-0.4 -1,-0.5 -0.4,-0.2 -0.8,-0.3 -1.3,-0.5 l -2.8,-1.2 c -0.6,-0.2 -1.1,-0.5 -1.6,-0.9 -0.5,-0.4 -1,-0.8 -1.4,-1.2 -0.4,-0.5 -0.7,-1 -1,-1.7 -0.2,-0.6 -0.4,-1.3 -0.4,-2.1 0,-0.9 0.2,-1.7 0.6,-2.5 0.4,-0.8 0.9,-1.5 1.6,-2.1 0.7,-0.6 1.5,-1.1 2.4,-1.4 0.9,-0.3 2,-0.5 3.1,-0.5 1.3,0 2.5,0.2 3.7,0.7 1.2,0.5 2.3,1.2 3.2,2.1 l -2.5,3.1 c -0.7,-0.6 -1.4,-1 -2.1,-1.3 -0.7,-0.3 -1.5,-0.5 -2.4,-0.5 -0.8,0 -1.5,0.2 -2,0.5 -0.5,0.3 -0.7,0.8 -0.7,1.4 0,0.3 0.1,0.6 0.3,0.9 0.2,0.2 0.4,0.4 0.7,0.6 0.3,0.2 0.7,0.4 1,0.5 0.4,0.2 0.8,0.3 1.3,0.5 l 2.8,1.1 c 1.3,0.5 2.4,1.3 3.1,2.2 0.8,0.9 1.1,2.2 1.1,3.7 0,0.9 -0.2,1.8 -0.5,2.6 -0.4,0.8 -0.9,1.5 -1.6,2.1 -0.7,0.6 -1.6,1.1 -2.6,1.5 -1,0.4 -2.2,0.5 -3.5,0.5 -1.4,0 -2.8,-0.3 -4.2,-0.8 -1.4,-0.5 -2.7,-1.3 -3.8,-2.3 z"
         class="st4" /><path
         style="fill:#3c3c3b"
         inkscape:connector-curvature="0"
         id="path26"
         d="m 503.8,320.2 c -1.5,0 -2.8,-0.3 -4,-0.8 -1.2,-0.5 -2.2,-1.3 -3.1,-2.2 -0.9,-1 -1.5,-2.2 -2,-3.6 -0.5,-1.4 -0.7,-3 -0.7,-4.8 0,-1.8 0.2,-3.4 0.7,-4.7 0.5,-1.4 1.1,-2.6 2,-3.5 0.9,-0.9 1.9,-1.7 3.1,-2.2 1.2,-0.5 2.5,-0.7 4,-0.7 1.5,0 2.8,0.3 4,0.7 1.2,0.5 2.2,1.2 3.1,2.2 0.9,1 1.5,2.1 2,3.5 0.5,1.4 0.7,3 0.7,4.7 0,1.8 -0.2,3.4 -0.7,4.8 -0.5,1.4 -1.1,2.6 -2,3.6 -0.9,1 -1.9,1.7 -3.1,2.2 -1.2,0.5 -2.5,0.8 -4,0.8 z m 0,-4.3 c 1.5,0 2.7,-0.6 3.5,-1.9 0.9,-1.3 1.3,-3 1.3,-5.2 0,-2.2 -0.4,-3.9 -1.3,-5.1 -0.9,-1.2 -2,-1.8 -3.5,-1.8 -1.5,0 -2.7,0.6 -3.5,1.8 -0.9,1.2 -1.3,2.9 -1.3,5.1 0,2.2 0.4,3.9 1.3,5.2 0.8,1.3 2,1.9 3.5,1.9 z"
         class="st4" /><path
         style="fill:#3c3c3b"
         inkscape:connector-curvature="0"
         id="path28"
         d="m 517.8,298.1 h 13.7 v 4.1 h -8.8 v 5 h 7.5 v 4.1 h -7.5 v 8.4 h -4.9 z"
         class="st4" /><path
         style="fill:#3c3c3b"
         inkscape:connector-curvature="0"
         id="path30"
         d="m 539.4,302.2 h -6 v -4.1 h 16.8 v 4.1 h -6 v 17.6 h -4.9 v -17.6 z"
         class="st4" /><path
         style="fill:#3c3c3b"
         inkscape:connector-curvature="0"
         id="path32"
         d="m 551.6,298.1 h 5 l 1.5,10.2 c 0.1,1.1 0.3,2.3 0.4,3.4 0.1,1.1 0.3,2.3 0.4,3.4 h 0.1 c 0.2,-1.2 0.4,-2.3 0.6,-3.4 0.2,-1.1 0.4,-2.3 0.7,-3.4 l 2.3,-10.2 h 4.2 l 2.3,10.2 c 0.2,1.1 0.4,2.2 0.6,3.4 0.2,1.1 0.4,2.3 0.7,3.5 h 0.1 c 0.2,-1.2 0.3,-2.3 0.4,-3.5 0.1,-1.1 0.3,-2.3 0.5,-3.4 l 1.5,-10.2 h 4.7 l -3.9,21.7 h -6.2 l -2.1,-9.9 c -0.2,-0.8 -0.3,-1.7 -0.5,-2.5 -0.1,-0.9 -0.3,-1.7 -0.4,-2.5 h -0.1 c -0.1,0.8 -0.3,1.6 -0.4,2.5 -0.1,0.9 -0.3,1.7 -0.5,2.5 l -2,9.9 h -6.1 z"
         class="st4" /><path
         style="fill:#3c3c3b"
         inkscape:connector-curvature="0"
         id="path34"
         d="m 591,314.6 h -6.6 l -1.3,5.2 h -5 l 6.8,-21.7 h 5.9 l 6.8,21.7 h -5.2 z m -1,-3.8 -0.5,-2 c -0.3,-1.1 -0.6,-2.2 -0.9,-3.5 -0.3,-1.2 -0.6,-2.4 -0.9,-3.5 h -0.1 c -0.3,1.2 -0.5,2.3 -0.8,3.5 -0.3,1.2 -0.6,2.4 -0.9,3.4 l -0.5,2 h 4.6 z"
         class="st4" /><path
         style="fill:#3c3c3b"
         inkscape:connector-curvature="0"
         id="path36"
         d="m 611.6,319.8 -4.2,-7.8 h -2.7 v 7.8 h -4.9 v -21.7 h 7.8 c 1.2,0 2.2,0.1 3.2,0.3 1,0.2 1.9,0.6 2.6,1.1 0.8,0.5 1.4,1.2 1.8,2.1 0.4,0.9 0.7,1.9 0.7,3.2 0,1.6 -0.3,2.9 -1.1,3.9 -0.7,1 -1.6,1.8 -2.8,2.3 l 4.9,8.7 h -5.3 z m -6.8,-11.7 h 2.5 c 1.3,0 2.3,-0.3 2.9,-0.8 0.7,-0.5 1,-1.3 1,-2.4 0,-1.1 -0.3,-1.8 -1,-2.2 -0.7,-0.4 -1.7,-0.6 -2.9,-0.6 h -2.5 z"
         class="st4" /><path
         style="fill:#3c3c3b"
         inkscape:connector-curvature="0"
         id="path38"
         d="M 620.4,298.1 H 634 v 4.1 h -8.7 v 4.4 h 7.4 v 4.1 h -7.4 v 5 h 9 v 4.1 h -13.9 z"
         class="st4" /><path
         style="fill:#3c3c3b"
         inkscape:connector-curvature="0"
         id="path40"
         d="m 645.5,298.1 h 4.9 v 8.4 h 7.5 v -8.4 h 4.9 v 21.7 h -4.9 v -9.1 h -7.5 v 9.1 h -4.9 z"
         class="st4" /><path
         style="fill:#3c3c3b"
         inkscape:connector-curvature="0"
         id="path42"
         d="m 676.8,320.2 c -1.5,0 -2.8,-0.3 -4,-0.8 -1.2,-0.5 -2.2,-1.3 -3.1,-2.2 -0.9,-1 -1.5,-2.2 -2,-3.6 -0.5,-1.4 -0.7,-3 -0.7,-4.8 0,-1.8 0.2,-3.4 0.7,-4.7 0.5,-1.4 1.1,-2.6 2,-3.5 0.9,-0.9 1.9,-1.7 3.1,-2.2 1.2,-0.5 2.5,-0.7 4,-0.7 1.5,0 2.8,0.3 4,0.7 1.2,0.5 2.2,1.2 3.1,2.2 0.9,1 1.5,2.1 2,3.5 0.5,1.4 0.7,3 0.7,4.7 0,1.8 -0.2,3.4 -0.7,4.8 -0.5,1.4 -1.1,2.6 -2,3.6 -0.9,1 -1.9,1.7 -3.1,2.2 -1.2,0.5 -2.5,0.8 -4,0.8 z m 0,-4.3 c 1.5,0 2.7,-0.6 3.5,-1.9 0.9,-1.3 1.3,-3 1.3,-5.2 0,-2.2 -0.4,-3.9 -1.3,-5.1 -0.9,-1.2 -2,-1.8 -3.5,-1.8 -1.5,0 -2.7,0.6 -3.5,1.8 -0.9,1.2 -1.3,2.9 -1.3,5.1 0,2.2 0.4,3.9 1.3,5.2 0.9,1.3 2,1.9 3.5,1.9 z"
         class="st4" /><path
         style="fill:#3c3c3b"
         inkscape:connector-curvature="0"
         id="path44"
         d="m 690.6,298.1 h 4.9 v 12.2 c 0,2.1 0.3,3.6 1,4.5 0.6,0.8 1.6,1.3 2.8,1.3 1.2,0 2.2,-0.4 2.8,-1.3 0.7,-0.8 1,-2.3 1,-4.5 v -12.2 h 4.7 v 11.7 c 0,3.6 -0.7,6.3 -2.2,8 -1.5,1.7 -3.6,2.5 -6.4,2.5 -2.8,0 -5,-0.8 -6.5,-2.5 -1.5,-1.7 -2.2,-4.3 -2.2,-8 v -11.7 z"
         class="st4" /><path
         style="fill:#3c3c3b"
         inkscape:connector-curvature="0"
         id="path46"
         d="m 714,313.7 c 0.8,0.7 1.6,1.2 2.6,1.6 0.9,0.4 1.9,0.6 2.8,0.6 1,0 1.8,-0.2 2.3,-0.6 0.5,-0.4 0.7,-0.9 0.7,-1.5 0,-0.3 -0.1,-0.6 -0.2,-0.9 -0.1,-0.2 -0.4,-0.5 -0.6,-0.7 -0.3,-0.2 -0.6,-0.4 -1,-0.5 -0.4,-0.2 -0.8,-0.3 -1.3,-0.5 l -2.8,-1.2 c -0.6,-0.2 -1.1,-0.5 -1.6,-0.9 -0.5,-0.4 -1,-0.8 -1.4,-1.2 -0.4,-0.5 -0.7,-1 -1,-1.7 -0.2,-0.6 -0.4,-1.3 -0.4,-2.1 0,-0.9 0.2,-1.7 0.6,-2.5 0.4,-0.8 0.9,-1.5 1.6,-2.1 0.7,-0.6 1.5,-1.1 2.4,-1.4 0.9,-0.3 2,-0.5 3.1,-0.5 1.3,0 2.5,0.2 3.7,0.7 1.2,0.5 2.3,1.2 3.2,2.1 l -2.5,3.1 c -0.7,-0.6 -1.4,-1 -2.1,-1.3 -0.7,-0.3 -1.5,-0.5 -2.4,-0.5 -0.8,0 -1.5,0.2 -2,0.5 -0.5,0.3 -0.7,0.8 -0.7,1.4 0,0.3 0.1,0.6 0.3,0.9 0.2,0.2 0.4,0.4 0.7,0.6 0.3,0.2 0.7,0.4 1,0.5 0.4,0.2 0.8,0.3 1.3,0.5 l 2.8,1.1 c 1.3,0.5 2.4,1.3 3.1,2.2 0.8,0.9 1.1,2.2 1.1,3.7 0,0.9 -0.2,1.8 -0.5,2.6 -0.4,0.8 -0.9,1.5 -1.6,2.1 -0.7,0.6 -1.6,1.1 -2.6,1.5 -1,0.4 -2.2,0.5 -3.5,0.5 -1.4,0 -2.8,-0.3 -4.2,-0.8 -1.4,-0.5 -2.7,-1.3 -3.8,-2.3 z"
         class="st4" /><path
         style="fill:#3c3c3b"
         inkscape:connector-curvature="0"
         id="path48"
         d="m 731.1,298.1 h 13.6 v 4.1 H 736 v 4.4 h 7.4 v 4.1 H 736 v 5 h 9 v 4.1 h -13.9 z"
         class="st4" /></g></g></svg>