<?xml version="1.0" encoding="UTF-8" standalone="no"?>
<svg
   xmlns:dc="http://purl.org/dc/elements/1.1/"
   xmlns:cc="http://creativecommons.org/ns#"
   xmlns:rdf="http://www.w3.org/1999/02/22-rdf-syntax-ns#"
   xmlns:svg="http://www.w3.org/2000/svg"
   xmlns="http://www.w3.org/2000/svg"
   xmlns:sodipodi="http://sodipodi.sourceforge.net/DTD/sodipodi-0.dtd"
   xmlns:inkscape="http://www.inkscape.org/namespaces/inkscape"
   width="150"
   height="42"
   viewBox="0 0 150 41.999999"
   version="1.1"
   id="svg15"
   sodipodi:docname="rst-logo-gray.svg"
   inkscape:version="0.92.2 5c3e80d, 2017-08-06">
  <metadata
     id="metadata19">
    <rdf:RDF>
      <cc:Work
         rdf:about="">
        <dc:format>image/svg+xml</dc:format>
        <dc:type
           rdf:resource="http://purl.org/dc/dcmitype/StillImage" />
        <dc:title></dc:title>
      </cc:Work>
    </rdf:RDF>
  </metadata>
  <sodipodi:namedview
     pagecolor="#ffffff"
     bordercolor="#666666"
     borderopacity="1"
     objecttolerance="10"
     gridtolerance="10"
     guidetolerance="10"
     inkscape:pageopacity="0"
     inkscape:pageshadow="2"
     inkscape:window-width="1423"
     inkscape:window-height="856"
     id="namedview17"
     showgrid="false"
     inkscape:measure-start="0,0"
     inkscape:measure-end="0,0"
     inkscape:zoom="5.6603774"
     inkscape:cx="59.604567"
     inkscape:cy="27.260833"
     inkscape:window-x="0"
     inkscape:window-y="0"
     inkscape:window-maximized="0"
     inkscape:current-layer="g13" />
  <defs
     id="defs5">
    <clipPath
       id="a">
      <path
         d="M 0,841.89 H 595.276 V 0 H 0 Z"
         id="path2"
         inkscape:connector-curvature="0" />
    </clipPath>
  </defs>
  <g
     clip-path="url(#a)"
     transform="matrix(0.76293654,0,0,-0.76293654,-155.26771,341.70457)"
     id="g13"
     style="fill:#ffffff">
    <path
       d="m 294.675,427.449 c 0,-1.251 -0.46,-2.242 -1.38,-2.974 -0.92,-0.731 -2.14,-1.097 -3.665,-1.097 -1.832,0 -3.237,0.202 -4.214,0.605 v 1.046 c 1.08,-0.458 2.457,-0.687 4.132,-0.687 1.23,0 2.206,0.282 2.928,0.846 0.72,0.564 1.08,1.304 1.08,2.22 0,0.567 -0.118,1.037 -0.357,1.41 -0.24,0.372 -0.63,0.712 -1.17,1.02 -0.54,0.308 -1.332,0.639 -2.378,0.995 -1.532,0.526 -2.59,1.095 -3.174,1.707 -0.584,0.612 -0.877,1.427 -0.877,2.446 0,1.12 0.439,2.035 1.318,2.743 0.878,0.707 2.008,1.06 3.389,1.06 a 9.921,9.921 0 0 0 3.968,-0.8 l -0.38,-0.901 c -1.243,0.519 -2.433,0.779 -3.568,0.779 -1.107,0 -1.99,-0.256 -2.645,-0.77 -0.656,-0.512 -0.984,-1.21 -0.984,-2.091 0,-0.554 0.1,-1.008 0.302,-1.364 0.2,-0.355 0.532,-0.675 0.99,-0.958 0.458,-0.284 1.244,-0.624 2.358,-1.021 1.169,-0.403 2.047,-0.795 2.635,-1.174 0.588,-0.38 1.017,-0.81 1.287,-1.291 0.27,-0.483 0.405,-1.065 0.405,-1.75 m 4.032,3.651 c 0,-2.146 0.479,-3.806 1.436,-4.978 0.957,-1.173 2.33,-1.759 4.122,-1.759 1.804,0 3.183,0.581 4.137,1.743 0.953,1.162 1.43,2.827 1.43,4.994 0,2.16 -0.477,3.816 -1.43,4.968 -0.954,1.152 -2.326,1.728 -4.117,1.728 -1.784,0 -3.16,-0.581 -4.127,-1.743 -0.968,-1.163 -1.451,-2.813 -1.451,-4.953 m 12.264,0 c 0,-2.379 -0.595,-4.26 -1.784,-5.645 -1.19,-1.384 -2.831,-2.076 -4.922,-2.076 -2.085,0 -3.723,0.692 -4.912,2.076 -1.19,1.385 -1.784,3.273 -1.784,5.666 0,2.385 0.6,4.263 1.799,5.634 1.2,1.37 2.839,2.056 4.917,2.056 2.092,0 3.729,-0.689 4.91,-2.066 1.184,-1.378 1.776,-3.259 1.776,-5.645 m 5.015,-7.516 h -1.046 v 14.99 h 8.214 v -0.963 h -7.168 v -6.357 h 6.767 v -0.974 h -6.767 z m 13.928,0 h -1.057 v 14.007 h -4.87 v 0.984 h 10.797 v -0.984 h -4.87 z m 19.566,0 h -0.861 l -3.292,11.566 c -0.274,0.95 -0.479,1.73 -0.615,2.338 a 29.761,29.761 0 0 0 -0.466,-2.05 c -0.202,-0.773 -1.305,-4.724 -3.308,-11.854 h -0.882 l -4.122,14.99 h 1.098 l 2.625,-9.658 c 0.102,-0.39 0.198,-0.75 0.287,-1.082 0.089,-0.332 0.169,-0.643 0.241,-0.933 0.071,-0.291 0.136,-0.571 0.194,-0.84 0.058,-0.271 0.112,-0.542 0.16,-0.816 0.164,0.93 0.512,2.34 1.045,4.235 l 2.564,9.095 h 1.158 l 3.005,-10.438 c 0.349,-1.203 0.598,-2.174 0.748,-2.912 0.089,0.492 0.203,1.015 0.344,1.568 0.139,0.554 1.194,4.48 3.163,11.782 h 1.057 z m 8.82,6.234 h 5.362 l -2.04,5.404 a 26.114,26.114 0 0 0 -0.615,1.764 16.723,16.723 0 0 0 -0.605,-1.785 z m 5.711,-0.943 h -6.09 l -2.093,-5.29 h -1.158 l 6.03,15.051 h 0.665 l 5.907,-15.052 h -1.179 z m 6.954,2.143 h 2.861 c 1.265,0 2.245,0.282 2.943,0.846 0.697,0.564 1.046,1.396 1.046,2.497 0,1.14 -0.342,1.972 -1.026,2.492 -0.683,0.519 -1.798,0.779 -3.343,0.779 h -2.48 z m 0,-0.902 v -6.532 h -1.046 v 14.99 h 3.568 c 1.86,0 3.234,-0.343 4.123,-1.03 0.888,-0.687 1.333,-1.72 1.333,-3.101 0,-1.005 -0.265,-1.853 -0.794,-2.543 -0.53,-0.691 -1.335,-1.186 -2.416,-1.487 l 4.071,-6.83 h -1.25 l -3.866,6.533 z m 20.152,-6.532 h -8.193 v 14.99 h 8.193 v -0.963 h -7.147 v -5.67 h 6.747 v -0.964 h -6.747 v -6.43 h 7.147 z m -98.124,-24 -5.588,13.843 h -0.082 c 0.054,-0.848 0.082,-1.716 0.082,-2.605 V 399.583 H 286.4 v 14.99 h 1.62 l 5.311,-13.185 h 0.062 l 5.311,13.186 h 1.58 v -14.991 h -1.057 v 11.36 c 0,0.794 0.041,1.615 0.123,2.462 h -0.082 l -5.608,-13.822 z m 13.557,6.234 h 5.363 l -2.04,5.404 a 26.114,26.114 0 0 0 -0.616,1.764 16.73,16.73 0 0 0 -0.604,-1.785 z m 5.712,-0.943 h -6.09 l -2.093,-5.29 h -1.159 l 6.03,15.051 h 0.666 l 5.907,-15.052 h -1.18 z m 14.183,-1.425 c 0,-1.251 -0.46,-2.242 -1.38,-2.974 -0.92,-0.731 -2.141,-1.097 -3.665,-1.097 -1.832,0 -3.236,0.202 -4.214,0.605 v 1.046 c 1.08,-0.458 2.457,-0.687 4.132,-0.687 1.23,0 2.206,0.282 2.928,0.846 0.72,0.564 1.082,1.304 1.082,2.22 0,0.567 -0.12,1.037 -0.36,1.41 -0.24,0.372 -0.628,0.712 -1.17,1.02 -0.54,0.308 -1.332,0.639 -2.378,0.995 -1.531,0.526 -2.588,1.095 -3.173,1.707 -0.584,0.612 -0.876,1.427 -0.876,2.446 0,1.12 0.438,2.035 1.317,2.743 0.878,0.707 2.008,1.06 3.389,1.06 a 9.921,9.921 0 0 0 3.968,-0.8 l -0.38,-0.901 c -1.243,0.519 -2.433,0.779 -3.568,0.779 -1.107,0 -1.99,-0.256 -2.645,-0.77 -0.657,-0.512 -0.985,-1.21 -0.985,-2.091 0,-0.554 0.1,-1.008 0.303,-1.364 0.2,-0.355 0.53,-0.675 0.989,-0.958 0.458,-0.284 1.245,-0.624 2.359,-1.021 1.169,-0.403 2.048,-0.795 2.636,-1.174 0.587,-0.38 1.016,-0.81 1.286,-1.291 0.27,-0.483 0.405,-1.065 0.405,-1.75 m 7.6,-3.865 h -1.056 v 14.007 h -4.87 v 0.984 h 10.797 v -0.984 h -4.87 z m 15.814,0 h -8.192 v 14.99 h 8.192 v -0.963 h -7.146 v -5.67 h 6.747 v -0.964 h -6.747 v -6.43 h 7.146 z m 4.965,7.434 h 2.86 c 1.266,0 2.246,0.282 2.944,0.846 0.697,0.564 1.046,1.396 1.046,2.497 0,1.14 -0.342,1.972 -1.026,2.492 -0.683,0.519 -1.798,0.779 -3.343,0.779 h -2.481 z m 0,-0.902 v -6.532 h -1.046 v 14.99 h 3.568 c 1.86,0 3.234,-0.343 4.123,-1.03 0.888,-0.687 1.333,-1.72 1.333,-3.101 0,-1.005 -0.265,-1.853 -0.794,-2.543 -0.531,-0.691 -1.335,-1.186 -2.416,-1.487 l 4.07,-6.83 h -1.25 l -3.865,6.533 z m 20.233,-2.666 c 0,-1.251 -0.46,-2.242 -1.379,-2.974 -0.92,-0.731 -2.142,-1.097 -3.666,-1.097 -1.832,0 -3.237,0.202 -4.215,0.605 v 1.046 c 1.08,-0.458 2.458,-0.687 4.133,-0.687 1.23,0 2.206,0.282 2.928,0.846 0.72,0.564 1.081,1.304 1.081,2.22 0,0.567 -0.119,1.037 -0.359,1.41 -0.239,0.372 -0.628,0.712 -1.169,1.02 -0.54,0.308 -1.333,0.639 -2.379,0.995 -1.53,0.526 -2.588,1.095 -3.173,1.707 -0.584,0.612 -0.877,1.427 -0.877,2.446 0,1.12 0.44,2.035 1.318,2.743 0.878,0.707 2.008,1.06 3.39,1.06 1.407,0 2.73,-0.266 3.967,-0.8 l -0.379,-0.901 c -1.244,0.519 -2.434,0.779 -3.569,0.779 -1.107,0 -1.989,-0.256 -2.645,-0.77 -0.657,-0.512 -0.985,-1.21 -0.985,-2.091 0,-0.554 0.101,-1.008 0.303,-1.364 0.201,-0.355 0.531,-0.675 0.99,-0.958 0.457,-0.284 1.244,-0.624 2.358,-1.021 1.17,-0.403 2.047,-0.795 2.635,-1.174 0.588,-0.38 1.016,-0.81 1.287,-1.291 0.27,-0.483 0.405,-1.065 0.405,-1.75"
       id="path7"
       inkscape:connector-curvature="0"
       style="fill:#999999" />
    <path
       style="fill:#999999;stroke-width:0.76293653"
       d="M 1 1 L 1 41 L 17.724609 41 L 17.724609 1 L 1 1 z M 18.611328 1 L 18.611328 41 L 35.335938 41 L 35.335938 1 L 18.611328 1 z M 36.21875 1 L 36.21875 41 L 52.941406 41 L 52.941406 1 L 36.21875 1 z M 27.435547 23.941406 C 29.030847 23.941406 30.709447 24.58054 31.900391 25.771484 L 30.328125 27.748047 C 29.413364 27.046145 28.540279 26.642578 27.435547 26.642578 C 26.372013 26.642578 25.669922 27.109897 25.669922 27.896484 C 25.669922 28.747159 26.584569 29.046114 27.796875 29.535156 L 29.560547 30.257812 C 31.240533 30.938352 32.304688 32.064552 32.304688 34.021484 C 32.304688 36.317923 30.389636 38.318359 27.09375 38.318359 C 25.286353 38.318359 23.373621 37.636714 21.949219 36.318359 L 23.755859 34.171875 C 24.733944 35.022549 26.009984 35.617188 27.158203 35.617188 C 28.455195 35.617188 29.09375 35.105893 29.09375 34.277344 C 29.09375 33.405307 28.306819 33.129545 27.09375 32.619141 L 25.308594 31.853516 C 23.862066 31.279024 22.501953 30.088615 22.501953 28.068359 C 22.501953 25.77192 24.564617 23.941406 27.435547 23.941406 z M 3.921875 24.197266 L 8.9199219 24.197266 C 11.854176 24.197266 14.277344 25.217786 14.277344 28.513672 C 14.277344 30.55529 13.279627 31.851779 11.8125 32.511719 L 14.9375 38.0625 L 11.427734 38.0625 L 8.7714844 33.064453 L 7.0683594 33.064453 L 7.0683594 38.0625 L 3.921875 38.0625 L 3.921875 24.197266 z M 39.189453 24.197266 L 49.949219 24.197266 L 49.949219 26.833984 L 46.142578 26.833984 L 46.142578 38.0625 L 43.015625 38.0625 L 43.015625 26.833984 L 39.189453 26.833984 L 39.189453 24.197266 z M 7.0703125 26.685547 L 7.0703125 30.576172 L 8.6640625 30.576172 C 10.301324 30.576172 11.195312 29.874751 11.195312 28.513672 C 11.195312 27.152593 10.301324 26.685547 8.6640625 26.685547 L 7.0703125 26.685547 z "
       transform="matrix(1.310725,0,0,-1.310725,203.51327,447.88072)"
       id="path9" />
  </g>
</svg>
