<?xml version="1.0" encoding="UTF-8" standalone="no"?>
<svg
   xmlns:dc="http://purl.org/dc/elements/1.1/"
   xmlns:cc="http://creativecommons.org/ns#"
   xmlns:rdf="http://www.w3.org/1999/02/22-rdf-syntax-ns#"
   xmlns:svg="http://www.w3.org/2000/svg"
   xmlns="http://www.w3.org/2000/svg"
   xmlns:sodipodi="http://sodipodi.sourceforge.net/DTD/sodipodi-0.dtd"
   xmlns:inkscape="http://www.inkscape.org/namespaces/inkscape"
   width="54"
   height="42"
   viewBox="0 0 54 41.999999"
   version="1.1"
   id="svg15"
   sodipodi:docname="rst-logo-blue.svg"
   inkscape:version="0.92.2 5c3e80d, 2017-08-06">
  <metadata
     id="metadata19">
    <rdf:RDF>
      <cc:Work
         rdf:about="">
        <dc:format>image/svg+xml</dc:format>
        <dc:type
           rdf:resource="http://purl.org/dc/dcmitype/StillImage" />
        <dc:title />
      </cc:Work>
    </rdf:RDF>
  </metadata>
  <sodipodi:namedview
     pagecolor="#ffffff"
     bordercolor="#666666"
     borderopacity="1"
     objecttolerance="10"
     gridtolerance="10"
     guidetolerance="10"
     inkscape:pageopacity="0"
     inkscape:pageshadow="2"
     inkscape:window-width="1423"
     inkscape:window-height="856"
     id="namedview17"
     showgrid="false"
     inkscape:measure-start="0,0"
     inkscape:measure-end="0,0"
     inkscape:zoom="8.0049825"
     inkscape:cx="33.179921"
     inkscape:cy="30.120333"
     inkscape:window-x="0"
     inkscape:window-y="0"
     inkscape:window-maximized="0"
     inkscape:current-layer="g13" />
  <defs
     id="defs5">
    <clipPath
       id="a">
      <path
         d="M 0,841.89 H 595.276 V 0 H 0 Z"
         id="path2"
         inkscape:connector-curvature="0" />
    </clipPath>
  </defs>
  <g
     clip-path="url(#a)"
     transform="matrix(0.76293654,0,0,-0.76293654,-155.26771,341.70457)"
     id="g13"
     style="fill:#ffffff">
    <path
       style="fill:#000000;fill-opacity:1;stroke-width:0.363;stroke:none;stroke-opacity:1;stroke-miterlimit:0;stroke-dasharray:none;paint-order:normal;stroke-linecap:square"
       d="M 1,1 V 41 H 17.724609 V 1 Z m 17.611328,0 v 40 h 16.72461 V 1 Z M 36.21875,1 V 41 H 52.941406 V 1 Z"
       transform="matrix(1.310725,0,0,-1.310725,203.51327,447.88072)"
       id="path9"
       inkscape:connector-curvature="0"
       sodipodi:nodetypes="ccccccccccccccc" />
    <path
       style="fill:#ffffff;fill-opacity:1;stroke-width:1"
       d="m 239.47373,416.50013 c 2.091,0 4.29118,-0.83773 5.85219,-2.39873 l -2.06081,-2.59073 c -1.199,0.92 -2.34338,1.44897 -3.79138,1.44897 -1.394,0 -2.31425,-0.61253 -2.31425,-1.64353 0,-1.115 1.19885,-1.50685 2.78785,-2.14785 l 2.31169,-0.9472 c 2.202,-0.892 3.59682,-2.36814 3.59682,-4.93314 0,-3.01 -2.51011,-5.63202 -6.83011,-5.63202 -2.369,0 -4.87607,0.89345 -6.74306,2.62145 l 2.368,2.81345 c 1.282,-1.115 2.95454,-1.89441 4.45954,-1.89441 1.7,0 2.53697,0.67017 2.53697,1.75617 0,1.143 -1.03145,1.50445 -2.62145,2.17345 l -2.33985,1.00352 c -1.896,0.753 -3.67873,2.3133 -3.67873,4.9613 0,3.01 2.70358,5.4093 6.46658,5.4093 z m -30.81996,-0.33536 h 6.55107 c 3.846,0 7.02211,-1.33762 7.02211,-5.65762 0,-2.676 -1.30774,-4.37534 -3.23074,-5.24034 l 4.09602,-7.27555 h -4.60034 l -3.48161,6.55106 h -2.23233 v -6.55106 h -4.12418 z m 46.2261,0 h 14.1031 v -3.45601 h -4.98946 v -14.7175 h -4.09858 v 14.7175 h -5.01506 z m -42.09936,-3.26145 v -5.09954 h 2.08897 c 2.146,0 3.31777,0.91937 3.31777,2.70337 0,1.784 -1.17177,2.39617 -3.31777,2.39617 z"
       id="path9-9"
       inkscape:connector-curvature="0"
       sodipodi:nodetypes="sccssccssccssccsscsscccccccccccccccccccsssc" />
  </g>
</svg>
